<?xml version="1.0" encoding="utf-8"?>
<!-- Generator: Adobe Illustrator 24.1.1, SVG Export Plug-In . SVG Version: 6.00 Build 0)  -->
<svg version="1.1" id="Capa_1" xmlns="http://www.w3.org/2000/svg" xmlns:xlink="http://www.w3.org/1999/xlink" x="0px" y="0px"
	 viewBox="0 0 482.4 512" style="enable-background:new 0 0 482.4 512;" xml:space="preserve">
<style type="text/css">
	.st0{fill:#FFFFFF;}
</style>
<g>
	<path class="st0" d="M457.6,492.9c-144.3,0-288.6,0-432.9,0c-0.7-0.3-1.3-0.8-2-1c-11.8-4-18.3-12.7-18.3-25.4
		c0-140.3,0-280.6,0.1-420.9c0-4.2,1-8.7,2.8-12.4c5-10.2,13.9-14.1,25-14.1c139.3,0.1,278.7,0,418,0c1.5,0,3.1,0,4.6,0.2
		c9.7,1.1,16.6,6.1,20.9,14.7c0.9,1.8,1.5,3.6,2.3,5.4c0,144.3,0,288.7,0,433c-1.8,3.5-3.3,7.2-5.4,10.4
		C469.1,488.4,463.3,490.5,457.6,492.9z M241.1,450.3c106.6,0.1,194.2-87.4,194.3-194.2C435.5,149.4,348,61.9,241.3,61.8
		C134.6,61.7,47.1,149.2,47,255.9C46.9,362.6,134.4,450.2,241.1,450.3z"/>
	<path class="st0" d="M197.5,362.3c-21.1-62.9-42-125.1-63.2-188c5.7-0.5,10.8-1,16-1.5c1.4-0.1,2.8-0.1,4.1-0.4
		c4.3-1,6.7-4,6.3-7.8c-0.4-3.9-3.2-6.5-7.7-6.4c-6,0.2-12,0.9-18,1.1c-11.4,0.4-22.8,0.6-34.2,0.9c-1.5,0-2.9-0.2-4.6-0.3
		c59.9-93.6,190.3-101.5,261.7-32.8c-7.2,0.2-13.7,1.9-18.9,6.6c-11.3,10-14.1,22.7-9.3,36.5c2.8,8.1,7.2,15.6,11.5,23.1
		c6.4,10.9,12.4,22,15.5,34.4c3.8,15.2,2.6,30.3-1.8,45.2c-8.5,28.8-17.2,57.5-25.8,86.3c-0.1,0.4-0.3,0.8-1,2.2
		c-21.1-62.7-41.9-124.6-62.8-187c5.8-0.5,10.9-1,16.1-1.4c1.1-0.1,2.2-0.1,3.2-0.3c4.8-0.8,7.5-4,7-8.2c-0.5-4.1-3.4-6.5-8.2-6.3
		c-5.2,0.2-10.5,0.6-15.7,1c-24.2,1.8-48.4,1.1-72.5-0.8c-1.4-0.1-2.8-0.2-4.2-0.1c-4.1,0.3-6.6,2.7-6.9,6.7c-0.3,4.1,1.9,6.9,6,7.4
		c5,0.7,10.1,1.1,15.2,1.4c2.5,0.1,3.8,1,4.7,3.4c8.3,23,16.7,46,25,69c0.5,1.5,0.6,3.4,0.2,4.9c-12.1,36.7-24.4,73.3-36.6,109.9
		C198.5,361.2,198.2,361.4,197.5,362.3z"/>
	<path class="st0" d="M298.9,420.8c-35.5,12-70.8,12.9-106.9,2.7c17.4-50.7,34.7-100.9,52.4-152.2
		C262.6,321.6,280.6,370.9,298.9,420.8z"/>
	<path class="st0" d="M81.9,185.4c27.7,75.8,55.1,151.1,82.8,226.9C85.4,376,41.7,274.4,81.9,185.4z"/>
	<path class="st0" d="M394.9,173.8c44.5,82.2,14.6,186.8-65.6,232.4c2.2-6.4,4.2-12.3,6.3-18.2c17.3-49.9,34.7-99.7,51.7-149.6
		c6.7-19.6,9.7-39.7,7.7-60.5C394.8,176.9,394.9,175.9,394.9,173.8z"/>
</g>
</svg>
