<?xml version="1.0" encoding="utf-8"?>
<!-- Generator: Adobe Illustrator 24.1.1, SVG Export Plug-In . SVG Version: 6.00 Build 0)  -->
<svg version="1.1" id="Capa_1" xmlns="http://www.w3.org/2000/svg" xmlns:xlink="http://www.w3.org/1999/xlink" x="0px" y="0px"
	 viewBox="0 0 512 480" style="enable-background:new 0 0 512 480;" xml:space="preserve">
<style type="text/css">
	.st0{fill:#FFFFFF;}
</style>
<g>
	<path class="st0" d="M22,328c0-95.5,0-191,0-286.5c0.4-1.3,0.7-2.6,1.1-3.9c3-11.4,9.3-20.5,19.7-26.1c4.6-2.5,9.8-3.7,14.8-5.6
		c132,0,264,0,395.9,0c0.4,0.2,0.8,0.5,1.2,0.6c22.2,5.1,34.4,20.2,34.4,42.9c0,90.3,0,180.6-0.1,270.9c0,4.2-0.4,8.5-1.4,12.6
		c-4.9,18.8-20.9,30.6-41.3,30.6c-101.4,0-202.8,0-304.2,0c-26.3,0-52.6,0.1-78.9,0c-18-0.1-33.6-11.4-39.1-28.1
		C23.3,333,22.7,330.5,22,328z M296.6,281.7c-64.2,0-127.8,0-191.4,0c0,9.2,0,18,0,26.8c100.4,0,200.5,0,300.6,0
		c0-9.1,0-17.9,0-27.1c-27.4,0-54.5,0-82.1,0c0-9.4,0-18.2,0-27c-9.3,0-18,0-27.1,0C296.6,263.4,296.6,272.2,296.6,281.7z
		 M292.9,88.9c-24.1,4.6-45.3,13.6-63.4,29.4c-18,15.7-30.3,35.2-37.5,58.5c-23.6-26.4-52.6-36.4-86.6-33.6c0,9.1,0,18,0,27.4
		c21-1.8,40.4,1.6,56.8,15.3c16.3,13.6,24.4,31.4,25.1,52.5c9.2,0,18.1,0,27.2,0c0-9.5-0.1-18.8,0-28c0.3-42.6,29-79.9,70-91.3
		c4.9-1.4,9.9-2.6,15.1-4C297.3,106.1,295.1,97.6,292.9,88.9z M324,101.5c-0.1,22.5,18.1,41.1,40.6,41.3
		c22.7,0.2,41.4-18.2,41.5-40.8c0.1-22.5-18.1-41.1-40.6-41.3C342.8,60.5,324.1,78.9,324,101.5z"/>
	<path class="st0" d="M132.6,472.8c0-9.1,0-17.9,0-27c18.1,0,36,0,54.4,0c0-18.3,0-36.3,0-54.6c18.5,0,36.5,0,54.8,0
		c0,8.9,0,17.7,0,26.8c9.2,0,18.1,0,27.3,0c0-8.8,0-17.5,0-26.7c18.3,0,36.3,0,54.8,0c0,17.9,0,35.9,0,54.2c18.4,0,36.3,0,54.5,0
		c0,9.2,0,18.1,0,27.2C296.6,472.8,214.8,472.8,132.6,472.8z"/>
	<path class="st0" d="M364.9,115.5c-7.4,0-13.6-6.2-13.6-13.6c0-7.6,6.4-13.9,14-13.7c7.4,0.2,13.5,6.5,13.4,13.8
		C378.6,109.4,372.3,115.5,364.9,115.5z"/>
</g>
</svg>
