<?xml version="1.0" encoding="utf-8"?>
<!-- Generator: Adobe Illustrator 24.1.1, SVG Export Plug-In . SVG Version: 6.00 Build 0)  -->
<svg version="1.1" id="Capa_1" xmlns="http://www.w3.org/2000/svg" xmlns:xlink="http://www.w3.org/1999/xlink" x="0px" y="0px"
	 viewBox="0 0 373 373" style="enable-background:new 0 0 373 373;" xml:space="preserve">
<style type="text/css">
	.st0{fill:#FFFFFF;}
</style>
<g>
	<path class="st0" d="M212.4,365.9c-0.3-0.2-0.5-0.5-0.8-0.6c-8.3-3-12.1-8-12.1-16.7c-0.1-48.4,0-96.8,0-145.1
		c0-7.2,3.2-12.4,9.6-15.8c37.5-20.3,74.9-40.7,112.4-61c12.2-6.6,24.9,0.8,24.9,14.7c0.1,47.4,0,94.9,0.1,142.3
		c0,7.1-3.1,12.2-9.2,15.7c-37.6,21.3-75.1,42.7-112.7,64c-1.8,1-3.8,1.7-5.7,2.6C216.6,365.9,214.5,365.9,212.4,365.9z"/>
	<path class="st0" d="M154.3,365.9c-13.5-7.5-27.1-14.8-40.6-22.4c-25.5-14.4-50.8-29-76.3-43.2c-7.4-4.1-10.8-9.8-10.8-18.3
		c0.2-46.6,0.1-93.3,0.1-139.9c0-10.2,5.7-17.2,14.9-17.6c3.5-0.2,7.5,1,10.6,2.7c34.2,18.4,68.2,36.9,102.3,55.5
		c3.2,1.7,6.3,3.5,9.5,5.2c6.5,3.4,9.6,8.8,9.6,16.2c0,7.3,0,14.7,0,22c0,39.8-0.2,79.5,0.1,119.3c0.1,10.2-3.1,17.4-13.1,20.8
		C158.5,365.9,156.4,365.9,154.3,365.9z"/>
	<path class="st0" d="M184.4,7.1c2.9,0.9,5.7,1.4,8.1,2.7c41.3,21.3,82.5,42.7,123.7,64.1c6,3.1,9.3,8.1,9.3,14.9
		c-0.1,6.6-3.4,11.5-9.2,14.6c-41.1,21.4-82.2,42.9-123.2,64.3c-5.8,3.1-11.5,2.9-17.3-0.2c-40-21.2-80-42.4-120.1-63.6
		c-6.3-3.3-10.3-8.1-10.2-15.4c0.1-7.1,3.9-11.8,10.2-15.1C95.8,52.3,136,31.1,176.2,10C178.7,8.7,181.6,8.1,184.4,7.1z"/>
</g>
</svg>
