<?xml version="1.0" encoding="utf-8"?>
<!-- Generator: Adobe Illustrator 24.1.1, SVG Export Plug-In . SVG Version: 6.00 Build 0)  -->
<svg version="1.1" id="Layer_1" xmlns="http://www.w3.org/2000/svg" xmlns:xlink="http://www.w3.org/1999/xlink" x="0px" y="0px"
	 viewBox="0 0 512 512" style="enable-background:new 0 0 512 512;" xml:space="preserve">
<style type="text/css">
	.st0{fill:#FFFFFF;}
</style>
<g>
	<path class="st0" d="M324.7,207.1c0.6,14.6,1.1,28.5,1.6,42.4c1.9,56.8,3.8,113.6,5.8,170.3c0.6,16.4,1.1,32.9,1.9,49.3
		c0.2,3.7-0.8,5.3-4.5,6.2c-78.8,19-154.2,11.5-222.8-33.1C35.6,395.9,0.6,328.8,5.1,243.8C9.5,159.1,52.8,97.9,126.7,58
		c44.3-23.9,92.3-32.5,142.3-30.2c18.3,0.9,31.9,10.3,39,27.3c7.1,17,4.3,33.1-8.1,46.8c-9.4,10.5-19.8,20.1-29.8,30.1
		c-14.6,14.7-18.2,34-9.8,51.6c8.2,17.2,25.8,26.5,46,24.6C312.2,207.7,318.1,207.5,324.7,207.1z M107.3,256
		c21.8,0,39.8-17.9,40-39.9c0.1-22-18.3-40.4-40.2-40.2c-21.9,0.2-39.9,18.1-39.9,39.9C67.2,238.1,85.1,256,107.3,256z M295.8,387.4
		c0-21.9-17.8-39.8-39.8-39.9c-22.1-0.1-40.1,18-40,40.3c0.1,22.1,17.8,39.9,39.8,39.9C278,427.6,295.8,409.7,295.8,387.4z
		 M95.9,330.5c0.1,22,17.9,39.9,39.8,39.9c22.2,0,40-17.9,40-40.3c0-22.2-18-40-40.3-39.8C113.4,290.5,95.8,308.5,95.9,330.5z"/>
	<path class="st0" d="M411.2,340.2c-1.7,47.7-3.3,95.3-5.1,143c-0.5,13.9-10.8,24.2-24.1,24.4c-12.9,0.2-23.9-9.5-24.6-23.3
		c-1.3-24.6-1.9-49.3-2.8-73.9c-2.4-69.3-4.8-138.5-7.2-207.8c-0.7-19.5,11.5-35.4,29.2-37.7c18.3-2.4,34.5,8.6,38.5,26.4
		c0.8,3.8,0.8,7.8,0.7,11.7C414.3,248.8,412.7,294.5,411.2,340.2z"/>
	<path class="st0" d="M438.9,199.7c31.5,0.5,59.4,10.1,66.9,45.5c2.8,13.1,1.3,27.5-0.5,40.9c-7,50.5-29.2,93.5-66.1,128.9
		c-1.8,1.7-3.7,3.4-5.6,5c-0.4,0.3-0.9,0.5-2.4,1.3C433.8,347,436.3,273.3,438.9,199.7z"/>
	<path class="st0" d="M370.4,4.3c26.7,24.7,48,51,55.3,86.2c3.9,18.8,2.1,36.5-13.1,50.3c-14.3,13-31,16-48.7,8.5
		c-17.4-7.4-26.8-21.3-27.8-40.4c-0.7-14,2.7-27.3,8.4-40c2.8-6.2,5.9-12.2,9.1-18.2C361.3,36.6,369.5,22.5,370.4,4.3z"/>
</g>
</svg>
