<?xml version="1.0" encoding="utf-8"?>
<!-- Generator: Adobe Illustrator 24.1.1, SVG Export Plug-In . SVG Version: 6.00 Build 0)  -->
<svg version="1.1" id="Layer_1" xmlns="http://www.w3.org/2000/svg" xmlns:xlink="http://www.w3.org/1999/xlink" x="0px" y="0px"
	 viewBox="0 0 518 518" style="enable-background:new 0 0 518 518;" xml:space="preserve">
<style type="text/css">
	.st0{display:none;fill:#FFFFFF;}
	.st1{fill:#FFFFFF;}
</style>
<path class="st0" d="M0,97.1c50.7,0,101.5-0.1,152.2,0c20.6,0,40.7,2.6,59.3,12.1c24.3,12.5,37.6,32.8,40,59.7
	c0.9,9.6,0.3,19.6-1.3,29.2c-3.2,19-14.3,32.7-31.1,42c-1.5,0.8-2.9,1.7-4.4,2.5c-0.3,0.2-0.5,0.4-0.9,0.7
	c5.2,2.8,10.5,5.2,15.4,8.3c21.2,13.2,30.7,33.2,32.7,57.3c2.1,25.8-4.7,49-21.1,69.2c-14.9,18.3-34.5,28.3-57.5,31.5
	c-12.3,1.7-24.8,3-37.2,3.1C97.5,413,48.7,412.8,0,412.8C0,307.6,0,202.3,0,97.1z M64,358.1c16.1,0,31.5,0.1,47,0
	c15.3-0.2,30.7-0.1,45.9-1.1c20-1.4,33.2-12.6,36.7-30.9c1.3-7,1.2-14.4,0.5-21.5c-1.1-10.5-6.9-18.4-16.2-23.6
	c-8.6-4.8-18.1-6.5-27.7-6.7c-27.6-0.3-55.2-0.2-82.9-0.3c-1.1,0-2.2,0.3-3.3,0.5C64,302.4,64,330,64,358.1z M63.9,221.4
	c1.3,0.1,2.1,0.2,2.9,0.2c25.6,0,51.3,0.3,76.9-0.2c7.8-0.1,15.7-1.8,23.3-3.9c8.2-2.2,15-6.8,18.4-15.2c3.1-7.7,3.7-15.8,2.4-23.9
	c-1.9-11.9-8.7-19.9-20.7-22.6c-5.7-1.3-11.6-2.8-17.4-2.9c-27.8-0.6-55.6-0.7-83.4-1c-0.8,0-1.6,0.3-2.4,0.5
	C63.9,175.4,63.9,198.1,63.9,221.4z"/>
<path class="st0" d="M518,313.6c-1.7-0.1-3.4-0.2-5-0.2c-53.8,0-107.6,0-161.3,0c-1.8,0-3.6,0-5.4,0c-0.7,28.8,15,50.9,42.9,56.3
	c16.7,3.2,33.1,2.6,47.4-7.8c5-3.7,8.5-9.4,12.9-13.9c1.3-1.4,3.3-3.1,5.1-3.1c19.2-0.2,38.4-0.1,57.7-0.1c0.6,0,1.3,0.2,2.2,0.4
	c-0.7,8.4-4,15.8-8.2,22.6c-18.4,30-45.4,46.6-80,51.4c-32.9,4.5-64,0-92.9-17.3c-25.2-15.1-40.6-36.9-46.2-65.6
	c-6.4-32.5-6-64.8,6.4-96c13.6-34.4,39.6-55.2,75.2-63.3c32.2-7.4,63.7-4.9,93.4,10.4c23.6,12.2,39,32,47.6,56.6
	c4,11.5,5.1,23.9,7.5,35.9c0.3,1.5,0.6,2.9,0.9,4.4C518,294.1,518,303.8,518,313.6z M453.1,272.9c-0.6-29.7-21.4-48.7-52-49.3
	c-34.2-0.7-50.7,22.5-53.4,49.3C382.8,272.9,417.8,272.9,453.1,272.9z"/>
<path class="st0" d="M468,112.2c0,12.9,0,25.5,0,38.4c-45.5,0-91,0-136.7,0c0-12.7,0-25.4,0-38.4C376.9,112.2,422.3,112.2,468,112.2
	z"/>
<g>
	<path class="st1" d="M5.3,335.3c0-109.7,0-219.5,0-329.2c169.1,0,338.2,0,507.3,0c0,110.1,0,219.5,0,329.2
		C343.3,335.3,174.3,335.3,5.3,335.3z M233.2,200.7C201.9,124.9,130,90.9,66.2,97c0,9.6,0,19.3,0,29.4c42.2-2.6,79.1,9.1,109.1,39.1
		c30.1,30.1,41.7,67.2,39.1,109c10.5,0,20.1,0,29.9,0c0-4.5,0-8.7,0-12.8c0.1-43.6,32.6-76,76.2-76.1c4.2,0,8.5,0,12.6,0
		c0-10.3,0-19.9,0-29.5c-20-1.3-35.6,0.6-51.5,6.7C261.9,170.3,246,183,233.2,200.7z M408.1,126.1c-24.5-0.1-44.6,19.8-44.8,44.1
		c-0.2,24.7,19.8,45,44.4,45.1c24.5,0.1,44.6-19.8,44.8-44.1C452.7,146.5,432.8,126.2,408.1,126.1z"/>
	<path class="st1" d="M81.3,370.7c23.3,23.3,46.9,46.9,70.6,70.6c-24,23.4-48.2,47-71.9,70.1c-22.8-22.3-46.8-45.8-70.4-68.9
		C33.7,418.3,57.4,394.6,81.3,370.7z"/>
	<path class="st1" d="M438,371.2c23.2,23.2,46.9,46.9,70.8,70.8c-23.7,23.2-47.8,46.7-71.4,69.9c-23.2-22.7-47.2-46.2-70.8-69.3
		C390.7,418.4,414.4,394.7,438,371.2z"/>
	<path class="st1" d="M214.2,456.1c-9.9,0-19.4,0-29.1,0c0-9.7,0-19.2,0-29.1c9.5,0,19.2,0,29.1,0
		C214.2,436.4,214.2,446.1,214.2,456.1z"/>
	<path class="st1" d="M273.8,456.1c-9.8,0-19.3,0-29.1,0c0-9.7,0-19.3,0-29.2c9.6,0,19.3,0,29.1,0
		C273.8,436.5,273.8,446,273.8,456.1z"/>
	<path class="st1" d="M304.1,426.8c9.9,0,19.4,0,29.2,0c0,9.7,0,19.3,0,29.1c-9.6,0-19.2,0-29.2,0
		C304.1,446.4,304.1,436.7,304.1,426.8z"/>
	<path class="st1" d="M422.8,170.5c0.1,8-6.5,14.9-14.5,15.1c-8.2,0.2-15.2-6.7-15.2-14.9c0-8,6.7-14.8,14.7-14.8
		C415.8,155.8,422.6,162.5,422.8,170.5z"/>
</g>
</svg>
