<?xml version="1.0" encoding="utf-8"?>
<!-- Generator: Adobe Illustrator 24.1.1, SVG Export Plug-In . SVG Version: 6.00 Build 0)  -->
<svg version="1.1" id="Layer_1" xmlns="http://www.w3.org/2000/svg" xmlns:xlink="http://www.w3.org/1999/xlink" x="0px" y="0px"
	 viewBox="0 0 518 518" style="enable-background:new 0 0 518 518;" xml:space="preserve">
<style type="text/css">
	.st0{fill:#FFFFFF;}
</style>
<g>
	<path class="st0" d="M257.7,89c49.9,2,99.9,3,149.9,5.2c11.7,0.5,23.5,2.1,35,4.2c28.1,5.2,45.8,24,51.1,53.5
		c7.3,40.7,8.8,81.8,7.4,123c-1,28.8-3.7,57.5-6.5,86.2c-2,21.2-10.6,39.2-29.3,51.2c-11.3,7.2-24.1,9.3-37,10.6
		c-50.1,5.3-100.5,6.5-150.8,6.2c-50.5-0.3-101-1.8-151.4-3.4c-16.3-0.5-32.5-2.6-48.7-5c-27.7-4-47.4-22.9-52.2-51.6
		c-3.6-21.5-5.6-43.4-7.2-65.3c-2.5-35.7-1.8-71.5,1.1-107.1c1.4-16.6,3.3-33.3,6.7-49.5c6.1-29,26.5-46.5,55.9-50.2
		c47.2-5.9,94.7-6.4,142.1-7.2C235.1,89.6,246.4,89,257.7,89C257.7,88.5,257.7,89.5,257.7,89z M211.1,186.8c0,48.7,0,96.7,0,145.3
		c42.1-24.3,83.7-48.3,125.9-72.6C294.7,235.1,253.2,211.1,211.1,186.8z"/>
</g>
</svg>
