<?xml version="1.0" encoding="utf-8"?>
<!-- Generator: Adobe Illustrator 24.1.1, SVG Export Plug-In . SVG Version: 6.00 Build 0)  -->
<svg version="1.1" id="Layer_1" xmlns="http://www.w3.org/2000/svg" xmlns:xlink="http://www.w3.org/1999/xlink" x="0px" y="0px"
	 viewBox="0 0 518 518" style="enable-background:new 0 0 518 518;" xml:space="preserve">
<style type="text/css">
	.st0{display:none;fill:#FFFFFF;}
	.st1{fill:#FFFFFF;}
</style>
<path class="st0" d="M0,97.1c50.7,0,101.5-0.1,152.2,0c20.6,0,40.7,2.6,59.3,12.1c24.3,12.5,37.6,32.8,40,59.7
	c0.9,9.6,0.3,19.6-1.3,29.2c-3.2,19-14.3,32.7-31.1,42c-1.5,0.8-2.9,1.7-4.4,2.5c-0.3,0.2-0.5,0.4-0.9,0.7
	c5.2,2.8,10.5,5.2,15.4,8.3c21.2,13.2,30.7,33.2,32.7,57.3c2.1,25.8-4.7,49-21.1,69.2c-14.9,18.3-34.5,28.3-57.5,31.5
	c-12.3,1.7-24.8,3-37.2,3.1C97.5,413,48.7,412.8,0,412.8C0,307.6,0,202.3,0,97.1z M64,358.1c16.1,0,31.5,0.1,47,0
	c15.3-0.2,30.7-0.1,45.9-1.1c20-1.4,33.2-12.6,36.7-30.9c1.3-7,1.2-14.4,0.5-21.5c-1.1-10.5-6.9-18.4-16.2-23.6
	c-8.6-4.8-18.1-6.5-27.7-6.7c-27.6-0.3-55.2-0.2-82.9-0.3c-1.1,0-2.2,0.3-3.3,0.5C64,302.4,64,330,64,358.1z M63.9,221.4
	c1.3,0.1,2.1,0.2,2.9,0.2c25.6,0,51.3,0.3,76.9-0.2c7.8-0.1,15.7-1.8,23.3-3.9c8.2-2.2,15-6.8,18.4-15.2c3.1-7.7,3.7-15.8,2.4-23.9
	c-1.9-11.9-8.7-19.9-20.7-22.6c-5.7-1.3-11.6-2.8-17.4-2.9c-27.8-0.6-55.6-0.7-83.4-1c-0.8,0-1.6,0.3-2.4,0.5
	C63.9,175.4,63.9,198.1,63.9,221.4z"/>
<path class="st0" d="M518,313.6c-1.7-0.1-3.4-0.2-5-0.2c-53.8,0-107.6,0-161.3,0c-1.8,0-3.6,0-5.4,0c-0.7,28.8,15,50.9,42.9,56.3
	c16.7,3.2,33.1,2.6,47.4-7.8c5-3.7,8.5-9.4,12.9-13.9c1.3-1.4,3.3-3.1,5.1-3.1c19.2-0.2,38.4-0.1,57.7-0.1c0.6,0,1.3,0.2,2.2,0.4
	c-0.7,8.4-4,15.8-8.2,22.6c-18.4,30-45.4,46.6-80,51.4c-32.9,4.5-64,0-92.9-17.3c-25.2-15.1-40.6-36.9-46.2-65.6
	c-6.4-32.5-6-64.8,6.4-96c13.6-34.4,39.6-55.2,75.2-63.3c32.2-7.4,63.7-4.9,93.4,10.4c23.6,12.2,39,32,47.6,56.6
	c4,11.5,5.1,23.9,7.5,35.9c0.3,1.5,0.6,2.9,0.9,4.4C518,294.1,518,303.8,518,313.6z M453.1,272.9c-0.6-29.7-21.4-48.7-52-49.3
	c-34.2-0.7-50.7,22.5-53.4,49.3C382.8,272.9,417.8,272.9,453.1,272.9z"/>
<path class="st0" d="M468,112.2c0,12.9,0,25.5,0,38.4c-45.5,0-91,0-136.7,0c0-12.7,0-25.4,0-38.4C376.9,112.2,422.3,112.2,468,112.2
	z"/>
<g>
	<path class="st1" d="M245.1,156.8c-27.5,0-54.5,0.8-81.5-0.2c-32.8-1.3-62.3-29.2-67.6-62.2c-5.6-34.9,13.3-69.5,45.6-81.9
		c8.9-3.4,18.8-5.5,28.4-5.8c23.8-0.8,47.7-0.3,71.6-0.3c1,0,2,0.1,3.4,0.2C245.1,56.8,245.1,106.8,245.1,156.8z"/>
	<path class="st1" d="M272.8,156.6c0-50.1,0-99.8,0-149.2c0.6-0.4,0.7-0.6,0.9-0.6C302.6,7,331.7,5.1,360.2,8
		c38.6,3.9,65.2,40.4,62.5,80.8c-2.5,37-34.9,67.6-72.5,68.2c-24.3,0.4-48.6,0.1-72.9,0.1C275.9,157,274.5,156.8,272.8,156.6z"/>
	<path class="st1" d="M245.4,334c-1.9,0.1-3.5,0.4-5.1,0.4c-23.1,0-46.1,0.3-69.2-0.1c-37.6-0.7-66.8-24.6-74.5-60.4
		c-9.3-43.4,23.4-87.4,67.6-89.6c26.1-1.3,52.3-0.4,78.5-0.5c0.8,0,1.6,0.3,2.6,0.5C245.4,234.2,245.4,284,245.4,334z"/>
	<path class="st1" d="M245.3,361.1c0,28.6,0,56.4,0,84.2c0,1.6-0.6,3.3-0.9,4.9c-6.5,35.8-39.4,62.6-75.5,61.5
		c-38-1.2-69.2-29.7-73.3-67c-4.9-44.8,29.5-83.4,74.4-83.6C195,361.1,219.9,361.1,245.3,361.1z"/>
	<path class="st1" d="M272.5,258.9c0.1-41.6,33.8-75.2,75.4-75.1c41.7,0.1,75.2,33.7,75.1,75.4c-0.1,41.7-33.7,75.2-75.4,75.1
		C306,334.2,272.4,300.6,272.5,258.9z"/>
</g>
</svg>
