<?xml version="1.0" encoding="utf-8"?>
<!-- Generator: Adobe Illustrator 24.1.1, SVG Export Plug-In . SVG Version: 6.00 Build 0)  -->
<svg version="1.1" id="Layer_1" xmlns="http://www.w3.org/2000/svg" xmlns:xlink="http://www.w3.org/1999/xlink" x="0px" y="0px"
	 viewBox="0 0 518 518" style="enable-background:new 0 0 518 518;" xml:space="preserve">
<style type="text/css">
	.st0{display:none;fill:#FFFFFF;}
	.st1{fill:#FFFFFF;}
</style>
<path class="st0" d="M0,97.1c50.7,0,101.5-0.1,152.2,0c20.6,0,40.7,2.6,59.3,12.1c24.3,12.5,37.6,32.8,40,59.7
	c0.9,9.6,0.3,19.6-1.3,29.2c-3.2,19-14.3,32.7-31.1,42c-1.5,0.8-2.9,1.7-4.4,2.5c-0.3,0.2-0.5,0.4-0.9,0.7
	c5.2,2.8,10.5,5.2,15.4,8.3c21.2,13.2,30.7,33.2,32.7,57.3c2.1,25.8-4.7,49-21.1,69.2c-14.9,18.3-34.5,28.3-57.5,31.5
	c-12.3,1.7-24.8,3-37.2,3.1C97.5,413,48.7,412.8,0,412.8C0,307.6,0,202.3,0,97.1z M64,358.1c16.1,0,31.5,0.1,47,0
	c15.3-0.2,30.7-0.1,45.9-1.1c20-1.4,33.2-12.6,36.7-30.9c1.3-7,1.2-14.4,0.5-21.5c-1.1-10.5-6.9-18.4-16.2-23.6
	c-8.6-4.8-18.1-6.5-27.7-6.7c-27.6-0.3-55.2-0.2-82.9-0.3c-1.1,0-2.2,0.3-3.3,0.5C64,302.4,64,330,64,358.1z M63.9,221.4
	c1.3,0.1,2.1,0.2,2.9,0.2c25.6,0,51.3,0.3,76.9-0.2c7.8-0.1,15.7-1.8,23.3-3.9c8.2-2.2,15-6.8,18.4-15.2c3.1-7.7,3.7-15.8,2.4-23.9
	c-1.9-11.9-8.7-19.9-20.7-22.6c-5.7-1.3-11.6-2.8-17.4-2.9c-27.8-0.6-55.6-0.7-83.4-1c-0.8,0-1.6,0.3-2.4,0.5
	C63.9,175.4,63.9,198.1,63.9,221.4z"/>
<path class="st0" d="M518,313.6c-1.7-0.1-3.4-0.2-5-0.2c-53.8,0-107.6,0-161.3,0c-1.8,0-3.6,0-5.4,0c-0.7,28.8,15,50.9,42.9,56.3
	c16.7,3.2,33.1,2.6,47.4-7.8c5-3.7,8.5-9.4,12.9-13.9c1.3-1.4,3.3-3.1,5.1-3.1c19.2-0.2,38.4-0.1,57.7-0.1c0.6,0,1.3,0.2,2.2,0.4
	c-0.7,8.4-4,15.8-8.2,22.6c-18.4,30-45.4,46.6-80,51.4c-32.9,4.5-64,0-92.9-17.3c-25.2-15.1-40.6-36.9-46.2-65.6
	c-6.4-32.5-6-64.8,6.4-96c13.6-34.4,39.6-55.2,75.2-63.3c32.2-7.4,63.7-4.9,93.4,10.4c23.6,12.2,39,32,47.6,56.6
	c4,11.5,5.1,23.9,7.5,35.9c0.3,1.5,0.6,2.9,0.9,4.4C518,294.1,518,303.8,518,313.6z M453.1,272.9c-0.6-29.7-21.4-48.7-52-49.3
	c-34.2-0.7-50.7,22.5-53.4,49.3C382.8,272.9,417.8,272.9,453.1,272.9z"/>
<path class="st0" d="M468,112.2c0,12.9,0,25.5,0,38.4c-45.5,0-91,0-136.7,0c0-12.7,0-25.4,0-38.4C376.9,112.2,422.3,112.2,468,112.2
	z"/>
<g>
	<path class="st1" d="M328.8,251.2c-23.1,74-46.1,147.6-69.1,221.2c-0.4,0-0.8,0.1-1.2,0.1c-23-73.7-46-147.3-69.2-221.4
		C235.9,251.2,282.1,251.2,328.8,251.2z"/>
	<path class="st1" d="M277.2,470.8c4.5-14.4,8.9-28.8,13.4-43.2c17.8-57.1,35.7-114.2,53.4-171.4c1.3-4.1,3-5.4,7.3-5.4
		c41.8,0.2,83.5,0.1,125.3,0.1c1.7,0,3.3,0,6.4,0c-68.9,74-137,147.2-205.1,220.4C277.8,471.1,277.5,470.9,277.2,470.8z"/>
	<path class="st1" d="M238.5,466C171,394.6,103.6,323.2,35.3,250.9c2.5,0,3.7,0,5,0c42.4,0,84.9,0,127.3-0.1c3.6,0,5.2,1,6.3,4.6
		c21.4,69,43,138,64.6,206.9c0.3,1.1,0.6,2.2,0.9,3.3C239,465.8,238.7,465.9,238.5,466z"/>
	<path class="st1" d="M178.2,227.5c-22.3-35.6-44-70.4-66.1-105.7c44.3,0,87.8,0,132.2,0C222.3,157,200.5,191.8,178.2,227.5z"/>
	<path class="st1" d="M340,227.5c-22.3-35.6-44-70.3-66.1-105.7c44.2,0,87.7,0,132.2,0C384.1,157,362.3,191.8,340,227.5z"/>
	<path class="st1" d="M163.6,234.6c-44.6,0-88,0-132.4,0c22.1-35.4,43.9-70.2,66.2-105.9C119.6,164.2,141.3,199.1,163.6,234.6z"/>
	<path class="st1" d="M325.3,234.5c-44.4,0-87.9,0-132.3,0c22.1-35.3,43.9-70.2,66.2-105.8C281.3,164.3,303.1,199.1,325.3,234.5z"/>
	<path class="st1" d="M354.8,234.3c22-35.2,43.7-69.9,66-105.5c22.1,35.4,43.9,70.2,66,105.5C442.6,234.3,399,234.3,354.8,234.3z"/>
	<path class="st1" d="M267.2,57.2c0,7.6,0.1,15.2,0,22.7c-0.1,5.6-3.2,9.1-7.9,9.2c-4.7,0.1-8.1-3.5-8.2-8.9
		c-0.1-15.5-0.1-31,0-46.5c0-5.6,3.2-9.1,7.9-9.2c4.9-0.1,8.1,3.6,8.2,9.4C267.2,41.7,267.2,49.5,267.2,57.2z"/>
	<path class="st1" d="M164.5,89.8c-1.2-1-4.2-2.3-5.6-4.6c-8.2-13.5-16-27.3-23.8-41c-2.5-4.5-1.2-9.1,2.7-11.4
		c4-2.3,8.5-1.1,11.2,3.4c8,13.6,16,27.3,23.7,41.1C176.1,83.2,172.5,89.7,164.5,89.8z"/>
	<path class="st1" d="M385.2,38.4c-1.2,3.1-1.7,4.9-2.6,6.4c-7.5,13.1-15,26.3-22.7,39.4c-3,5.2-7.5,6.8-11.7,4.6
		c-4.4-2.4-5.4-7.2-2.3-12.7c7.6-13.3,15.3-26.5,23-39.8c2.1-3.6,5.3-5.9,9.2-4.2C381,33.3,383,36.4,385.2,38.4z"/>
	<path class="st1" d="M446.1,445.4c-2,2.4-3.5,5.1-5.8,6.7c-3.2,2.2-6.5,1-9.2-1.5c-3.9-3.7-7.6-7.6-11.4-11.4
		c-6.5-6.5-13.1-13-19.6-19.6c-4.3-4.3-4.6-8.9-1.1-12.4c3.5-3.6,8.1-3.3,12.4,0.9c10.2,10.1,20.3,20.1,30.3,30.4
		C443.4,440.1,444.4,442.5,446.1,445.4z"/>
	<path class="st1" d="M80.6,454.1c-2.4-2.1-5.1-3.7-6.7-6.1c-2.1-3.2-0.7-6.5,1.9-9.1c7.6-7.6,15.2-15.2,22.8-22.8
		c2.9-2.9,5.6-5.8,8.6-8.5c3.9-3.6,8.3-3.8,11.7-0.6c3.4,3.2,3.6,8-0.1,11.7c-10.5,10.7-21.1,21.3-31.8,31.7
		C85.7,451.8,83.5,452.5,80.6,454.1z"/>
	<path class="st1" d="M436.7,368.1c0.9,0.2,2,0.5,3.1,0.8c12.9,3.8,25.8,7.5,38.6,11.4c5.6,1.7,8.2,5.9,6.7,10.5
		c-1.5,4.7-5.7,6.5-11.5,4.9c-13-3.8-26.1-7.6-39.1-11.5c-4.6-1.4-7.1-5.1-6.3-9.1C429.1,370.7,431.9,368.4,436.7,368.1z"/>
	<path class="st1" d="M82.2,368.1c4,0.3,7,2.6,7.6,6.9c0.7,4.7-1.9,7.7-6.2,9.1c-10.4,3.2-20.9,6.2-31.4,9.3
		c-3.2,0.9-6.4,2.1-9.7,2.8c-4.3,1-8.4-1.4-9.5-5.5c-1.2-4.3,0.2-8.2,4.4-9.5c14.4-4.6,28.9-8.7,43.4-13
		C81.1,368.1,81.5,368.2,82.2,368.1z"/>
	<path class="st1" d="M157.9,445.1c-0.2,0.7-0.5,2-0.9,3.2c-3.7,12.4-7.3,24.8-11,37.2c-1.8,6.1-5.8,8.9-10.4,7.5
		c-4.9-1.4-6.8-5.8-5-11.8c3.7-12.9,7.5-25.8,11.4-38.7c1.3-4.4,4.3-6.8,9.1-6.2C155.1,436.9,158,440.4,157.9,445.1z"/>
	<path class="st1" d="M378.1,493.4c-1.2-1.2-4.4-3.1-5.3-5.8c-4.5-13.6-8.4-27.3-12.3-41c-1.3-4.6,1.2-8.7,5.4-9.9
		c4.1-1.2,8.4,0.5,9.7,4.9c4.4,13.9,8.5,27.9,12.5,42C389.6,488.7,385.4,493.5,378.1,493.4z"/>
</g>
</svg>
